HIERARCHY
ROOT Hips
{
	OFFSET 0.00000 0.00000 0.00000
	CHANNELS 6 Xposition Yposition Zposition Zrotation Yrotation Xrotation 
	JOINT LHipJoint
	{
		OFFSET 0 0 0
		CHANNELS 3 Zrotation Yrotation Xrotation
		JOINT LeftHip
		{
			OFFSET 1.84395 -1.68683 0.74144
			CHANNELS 3 Zrotation Yrotation Xrotation
			JOINT LeftKnee
			{
				OFFSET 2.27037 -6.23779 0.00000
				CHANNELS 3 Zrotation Yrotation Xrotation
				JOINT LeftAnkle
				{
					OFFSET 2.56918 -7.05877 0.00000
					CHANNELS 3 Zrotation Yrotation Xrotation
					JOINT LeftToe
					{
						OFFSET 0.22276 -0.61202 1.71784
						CHANNELS 3 Zrotation Yrotation Xrotation
						End Site
						{
							OFFSET 0.00000 -0.00000 0.91613
						}
					}
				}
			}
		}
	}
	JOINT RHipJoint
	{
		OFFSET 0 0 0
		CHANNELS 3 Zrotation Yrotation Xrotation
		JOINT RightHip
		{
			OFFSET -1.76833 -1.68684 0.74144
			CHANNELS 3 Zrotation Yrotation Xrotation
			JOINT RightKnee
			{
				OFFSET -2.49360 -6.85110 0.00000
				CHANNELS 3 Zrotation Yrotation Xrotation
				JOINT RightAnkle
				{
					OFFSET -2.55538 -7.02085 0.00000
					CHANNELS 3 Zrotation Yrotation Xrotation
					JOINT RightToe
					{
						OFFSET -0.21516 -0.59115 1.68050
						CHANNELS 3 Zrotation Yrotation Xrotation
						End Site
						{
							OFFSET -0.00000 -0.00000 0.89604
						}
					}
				}
			}
		}
	}
	JOINT lowerback
	{
		OFFSET 0 0 0
		CHANNELS 3 Zrotation Yrotation Xrotation
		JOINT Chest
		{
			OFFSET 0.06382 1.72312 -0.19613
			CHANNELS 3 Zrotation Yrotation Xrotation
			JOINT Chest2
			{
				OFFSET -0.00055 1.73507 0.23859
				CHANNELS 3 Zrotation Yrotation Xrotation
				JOINT lowerneck
				{
					OFFSET 0 0 0
					CHANNELS 3 Zrotation Yrotation Xrotation
					JOINT Neck
					{
						OFFSET 0.03638 1.65562 0.09633
						CHANNELS 3 Zrotation Yrotation Xrotation
						JOINT Head
						{
							OFFSET 0.06388 1.62807 -0.32386
							CHANNELS 3 Zrotation Yrotation Xrotation
							End Site
							{
								OFFSET 0.00995 1.67644 -0.12021
							}
						}
					}
				}
				JOINT LeftCollar
				{
					OFFSET 0 0 0
					CHANNELS 3 Zrotation Yrotation Xrotation
					JOINT LeftShoulder
					{
						OFFSET 3.09648 1.42991 0.28122
CHANNELS 3 Zrotation Xrotation Yrotation
						JOINT LeftElbow
						{
OFFSET 0 -5.118780 -0.000000
CHANNELS 3 Zrotation Xrotation Yrotation
							JOINT LeftWrist
							{
OFFSET 0 -3.599710 0.000000
CHANNELS 3 Zrotation Xrotation Yrotation
								JOINT lhand
								{
									OFFSET 0 0 0
CHANNELS 3 Zrotation Xrotation Yrotation
									JOINT LFingers
									{
OFFSET 0 -0.628770 0.000000
CHANNELS 3 Zrotation Xrotation Yrotation
										End Site
										{
OFFSET 0 -0.506930 0.000000
										}
									}
								}
								JOINT LThumb
								{
OFFSET 0 0.000000 0.000000
CHANNELS 3 Zrotation Xrotation Yrotation
									End Site
									{
OFFSET 0 -0.514670 0.514670
									}
								}
							}
						}
					}
				}
				JOINT RightCollar
				{
					OFFSET 0 0 0
					CHANNELS 3 Zrotation Yrotation Xrotation
					JOINT RightShoulder
					{
						OFFSET -3.33565 1.14597 0.05047
CHANNELS 3 Zrotation Xrotation Yrotation
						JOINT RightElbow
						{
OFFSET 0 -5.490200 0.000000
CHANNELS 3 Zrotation Xrotation Yrotation
							JOINT RightWrist
							{
OFFSET 0 -3.206590 -0.000000
CHANNELS 3 Zrotation Xrotation Yrotation
								JOINT rhand
								{
									OFFSET 0 0 0
CHANNELS 3 Zrotation Xrotation Yrotation
									JOINT RFingers
									{
OFFSET 0 -0.691880 0.000000
CHANNELS 3 Zrotation Xrotation Yrotation
										End Site
										{
OFFSET 0 -0.557810 0.000000
										}
									}
								}
								JOINT RThumb
								{
OFFSET 0 0.000000 0.000000
CHANNELS 3 Zrotation Xrotation Yrotation
									End Site
									{
OFFSET 0 -0.566330 0.566330
									}
								}
							}
						}
					}
				}
			}
		}
	}
}
MOTION
Frames: 8
Frame Time: 0.008333333333333333
0.881000 17.449600 8.808100 -9.021100 0.756100 8.489400 0.000000 0.000000 0.000000 -21.318900 -42.986200 28.570600 0.063300 -1.622800 -4.464400 -5.148000 43.015600 -43.843900 0.357000 3.838600 10.622900 0.000000 0.000000 0.000000 28.343200 24.204200 8.115500 -0.005600 -0.485000 1.332600 0.275900 -17.239900 -21.745200 -0.907200 -6.069600 16.986600 7.132800 0.713400 -0.437500 1.904000 1.425200 -8.692700 -2.060900 0.252200 -8.846800 -10.421400 -11.284700 -3.419700 13.589500 -16.773500 14.665900 4.614200 -7.886100 7.073600 0.000000 0.000000 0.000000 -4.236900 9.524300 12.901800 7.976000 -13.513900 0.946500 18.976800 41.326900 6.970700 0.000000 0.000000 0.000000 -7.125000 0.000000 0.000000 -5.714200 22.623700 -3.091300 0.000000 0.000000 0.000000 3.027600 7.582300 -10.462700 -9.767700 -16.375400 -1.408800 9.370600 51.075200 30.523800 0.000000 0.000000 0.000000 7.125000 0.000000 -0.000000 42.755900 55.134600 -12.281700
0.870975 17.449380 8.789228 -9.592752 0.394139 9.040060 0.000000 0.000000 0.000000 -19.717244 -42.902770 27.471817 0.067682 -1.677941 -4.616510 -5.028058 42.887118 -44.020014 0.393216 4.026270 11.150557 0.000000 0.000000 0.000000 28.630309 24.242446 6.904459 -0.006507 -0.519259 1.426870 0.535289 -17.870823 -19.867144 -0.099350 -1.466156 4.046540 7.515575 0.883413 -0.566727 2.074680 1.686919 -8.958192 -2.105936 0.347719 -9.048415 -10.395792 -11.251189 -3.237060 13.566952 -16.722630 14.551372 4.621587 -7.873740 6.993722 0.000000 0.000000 0.000000 -4.211936 9.664028 12.744968 8.001616 -13.555440 0.952496 18.871191 41.088032 7.048101 0.000000 0.000000 0.000000 -7.125000 0.000000 0.000000 -5.790551 22.547240 -3.143208 0.000000 0.000000 0.000000 3.079213 7.713227 -10.585307 -9.800705 -16.427251 -1.418106 9.476637 51.262548 30.373563 0.000000 0.000000 0.000000 7.125000 0.000000 0.000000 42.715086 54.999037 -12.114626
0.845966 17.450457 8.779632 -8.921540 -0.172691 10.265618 0.000000 0.000000 0.000000 -19.498521 -43.909304 26.143976 0.063573 -1.626378 -4.474139 -4.813520 43.139902 -45.439094 0.486499 4.472303 12.409374 0.000000 0.000000 0.000000 27.520478 26.196194 5.836986 -0.010407 -0.658273 1.808999 0.663108 -18.790847 -20.077190 -0.011581 -0.692535 1.903175 6.320481 1.322676 -1.705878 1.720955 2.119352 -9.312157 -1.822118 0.641489 -8.731454 -9.883884 -11.445448 -2.962320 13.534169 -17.011350 14.276836 4.518891 -8.008351 6.847526 0.000000 0.000000 0.000000 -3.600290 9.910898 9.656142 8.179854 -13.843952 0.994734 18.122304 39.963608 5.461832 0.000000 0.000000 0.000000 -7.125000 0.000000 0.000000 -6.376932 24.237882 -3.215650 0.000000 0.000000 0.000000 3.172473 7.370503 -11.103048 -9.246784 -15.552881 -1.265569 8.845031 51.652025 30.251549 0.000000 0.000000 0.000000 7.125000 0.000000 0.000000 42.045392 55.029630 -11.901636
0.844104 17.453463 8.780496 -8.694835 -0.204689 10.357809 0.000000 0.000000 0.000000 -19.760368 -44.107238 26.122241 0.062178 -1.609310 -4.427103 -4.705201 43.110136 -45.776053 0.516342 4.605536 12.786811 0.000000 0.000000 0.000000 27.255324 26.453101 5.840093 -0.010296 -0.655349 1.800981 0.688401 -19.003920 -20.188856 -0.008384 -0.590146 1.621630 6.008336 1.351092 -1.833893 1.640032 2.131955 -9.333908 -1.732461 0.669300 -8.680591 -9.777324 -11.467264 -2.806165 13.553442 -17.033512 14.056732 4.518314 -8.026187 6.745405 0.000000 0.000000 0.000000 -3.499912 9.926913 9.242210 8.198406 -13.873934 0.999151 18.060797 39.882103 5.170621 0.000000 0.000000 0.000000 -7.125000 0.000000 0.000000 -6.431414 24.544130 -3.197924 0.000000 0.000000 0.000000 3.153815 7.304465 -11.110452 -9.128445 -15.364876 -1.233882 8.904229 51.514208 30.192913 0.000000 0.000000 0.000000 7.125000 0.000000 0.000000 42.046058 54.972833 -11.839346
0.845771 17.456024 8.802344 -9.329859 0.203744 10.546106 0.000000 0.000000 0.000000 -18.728756 -44.053273 25.788224 0.066079 -1.658548 -4.562867 -4.953703 43.208086 -45.063775 0.434843 4.231455 11.728802 0.000000 0.000000 0.000000 28.004039 26.181135 5.779719 -0.008129 -0.581020 1.596594 0.701368 -19.050097 -20.121468 -0.008012 -0.577830 1.587874 6.751455 1.318006 -2.441759 1.780057 2.063373 -9.302976 -1.977148 0.598488 -8.290627 -9.794857 -11.514128 -2.866164 13.687359 -17.132678 14.159370 4.546632 -8.060530 6.815035 0.000000 0.000000 0.000000 -3.440104 9.927601 9.172395 8.213792 -13.898798 1.002821 18.032717 39.951055 5.086349 0.000000 0.000000 0.000000 -7.125000 0.000000 0.000000 -6.455039 24.632951 -3.196520 0.000000 0.000000 0.000000 3.157838 7.258211 -11.111071 -9.103805 -15.325652 -1.227409 8.887358 51.311166 30.274025 0.000000 0.000000 0.000000 7.125000 0.000000 0.000000 42.103095 55.038567 -11.932696
0.847090 17.456582 8.805000 -9.390695 0.242939 10.575806 0.000000 0.000000 0.000000 -18.622522 -44.048148 25.739833 0.066400 -1.662518 -4.573782 -5.003500 43.218283 -44.896402 0.428453 4.200727 11.642021 0.000000 0.000000 0.000000 28.061927 26.168037 5.773560 -0.007827 -0.570753 1.568396 0.688518 -19.008623 -20.197316 -0.011602 -0.694854 1.909610 6.803531 1.311152 -2.515828 1.798378 2.049502 -9.296475 -1.984224 0.590251 -8.241404 -9.794163 -11.538505 -2.840309 13.726459 -17.174411 14.149373 4.555550 -8.079678 6.816267 0.000000 0.000000 0.000000 -3.411180 9.890160 9.406705 8.170968 -13.829621 0.992585 18.124594 40.297347 5.077243 0.000000 0.000000 0.000000 -7.125000 0.000000 0.000000 -6.386831 24.639675 -3.161341 0.000000 0.000000 0.000000 3.099885 7.265501 -10.888411 -9.108957 -15.333950 -1.228801 8.834761 50.960574 30.426494 0.000000 0.000000 0.000000 7.125000 0.000000 0.000000 42.192417 55.166080 -12.106316
0.847815 17.456415 8.803259 -9.373291 0.239071 10.593941 0.000000 0.000000 0.000000 -18.536665 -43.979933 25.593593 0.066200 -1.660149 -4.567260 -5.015156 43.179883 -44.761926 0.419303 4.156431 11.517147 0.000000 0.000000 0.000000 28.018138 26.162352 5.715649 -0.008000 -0.579053 1.591189 0.690773 -19.011898 -20.175812 -0.006093 -0.503277 1.382826 6.796951 1.317015 -2.510983 1.777522 2.055751 -9.286574 -2.002896 0.593434 -8.231913 -9.864247 -11.577981 -2.896074 13.822652 -17.241233 14.168310 4.584342 -8.106099 6.855846 0.000000 0.000000 0.000000 -3.351366 9.861492 9.330858 8.151131 -13.797536 0.987881 18.159988 40.281777 4.948479 0.000000 0.000000 0.000000 -7.125000 0.000000 0.000000 -6.364504 24.773150 -3.130292 0.000000 0.000000 0.000000 3.097803 7.217554 -10.945942 -9.107626 -15.331769 -1.228442 8.742596 51.028456 30.451385 0.000000 0.000000 0.000000 7.125000 0.000000 0.000000 42.132527 55.203414 -12.125140
0.847726 17.456458 8.802826 -9.321462 0.238988 10.564884 0.000000 0.000000 0.000000 -18.596395 -43.937270 25.591751 0.066216 -1.660727 -4.568932 -4.954197 43.110887 -44.837362 0.425487 4.186154 11.601080 0.000000 0.000000 0.000000 27.971094 26.149612 5.769371 -0.007700 -0.567197 1.558659 0.688303 -19.002364 -20.187107 -0.009413 -0.625938 1.720100 6.684192 1.304247 -2.441022 1.781984 2.042690 -9.286533 -1.937050 0.594180 -8.275263 -9.788852 -11.582726 -2.972263 13.771350 -17.248515 14.234974 4.550704 -8.103198 6.879868 0.000000 0.000000 0.000000 -3.365983 9.890694 9.520110 8.163187 -13.817035 0.990783 18.072056 40.427605 5.117518 0.000000 0.000000 0.000000 -7.125000 0.000000 0.000000 -6.424693 24.599212 -3.186388 0.000000 0.000000 0.000000 3.049596 7.197087 -11.282559 -9.075918 -15.281328 -1.220056 8.853472 51.441639 30.097822 0.000000 0.000000 0.000000 7.125000 0.000000 0.000000 41.916871 54.909474 -11.722755
